<svg width="25" height="24" viewBox="0 0 25 24" fill="none" xmlns="http://www.w3.org/2000/svg">
<g clip-path="url(#clip0_482_28079)">
<path d="M9.30009 0.615247C9.2798 0.603629 9.25641 0.598907 9.23331 0.601765C9.21021 0.604623 9.1886 0.614912 9.17162 0.63114C9.15465 0.647368 9.14318 0.66869 9.1389 0.692011C9.13461 0.715332 9.13773 0.739439 9.14779 0.760833L10.0997 2.82087C10.106 2.83278 10.1087 2.84627 10.1077 2.85974C10.1067 2.8732 10.1018 2.88608 10.0938 2.89683C10.0858 2.90757 10.0749 2.91574 10.0624 2.92034C10.05 2.92494 10.0365 2.92579 10.0235 2.92278L8.11973 2.57338C8.09632 2.56869 8.07205 2.57193 8.05061 2.5826C8.02917 2.59326 8.01174 2.61078 8.00096 2.63248C7.99019 2.65418 7.98666 2.67888 7.99091 2.70281C7.99517 2.72674 8.00698 2.7486 8.02454 2.76507L9.15731 3.84968C9.17148 3.86306 9.18238 3.87962 9.18914 3.89806C9.19591 3.9165 9.19835 3.9363 9.19626 3.95587C9.19418 3.97544 9.18764 3.99424 9.17716 4.01078C9.16667 4.02731 9.15254 4.04111 9.13589 4.05108L3.34591 7.44808C3.22369 7.52031 3.12222 7.62399 3.05164 7.74876C2.98106 7.87352 2.94385 8.01499 2.94373 8.15903V18.0419C2.94409 18.1859 2.9814 18.3272 3.05196 18.452C3.12251 18.5767 3.22385 18.6804 3.34591 18.7528L10.4519 22.9239C10.9646 23.2254 11.5461 23.3841 12.138 23.3841C12.7299 23.3841 13.3113 23.2254 13.824 22.9239L20.9253 18.7528C21.0459 18.6796 21.1456 18.5754 21.2145 18.4507C21.2834 18.326 21.319 18.185 21.3179 18.0419V8.16873C21.3183 8.0246 21.2813 7.88294 21.2107 7.75809C21.14 7.63324 21.0383 7.52964 20.9158 7.45779L9.30009 0.615247Z" fill="black"/>
<path d="M15.5661 11.6482H8.70517C8.43431 11.6468 8.16972 11.7313 7.94802 11.89C7.72632 12.0487 7.55847 12.2737 7.46769 12.5339L6.18261 16.2706C6.17455 16.2934 6.17202 16.3179 6.17526 16.342C6.17849 16.366 6.18738 16.3889 6.20118 16.4087C6.21497 16.4285 6.23326 16.4446 6.25448 16.4556C6.27569 16.4666 6.29921 16.4722 6.32302 16.472H17.953C17.9766 16.4717 17.9998 16.4657 18.0207 16.4545C18.0417 16.4434 18.0597 16.4273 18.0734 16.4077C18.0871 16.388 18.096 16.3654 18.0995 16.3416C18.103 16.3177 18.1009 16.2934 18.0934 16.2706L16.7964 12.5339C16.7051 12.2754 16.5381 12.0518 16.3181 11.8934C16.098 11.735 15.8355 11.6494 15.5661 11.6482Z" fill="white"/>
<path d="M16.1277 8.58606H8.15069C6.94284 8.58606 5.96368 9.58442 5.96368 10.816C5.96368 12.0475 6.94284 13.0458 8.15069 13.0458H16.1277C17.3355 13.0458 18.3147 12.0475 18.3147 10.816C18.3147 9.58442 17.3355 8.58606 16.1277 8.58606Z" fill="white"/>
<path d="M8.99316 11.5901C9.41242 11.5901 9.7523 11.2435 9.7523 10.816C9.7523 10.3885 9.41242 10.042 8.99316 10.042C8.57389 10.042 8.23401 10.3885 8.23401 10.816C8.23401 11.2435 8.57389 11.5901 8.99316 11.5901Z" fill="black"/>
<path d="M15.2829 11.5901C15.7022 11.5901 16.042 11.2435 16.042 10.816C16.042 10.3885 15.7022 10.042 15.2829 10.042C14.8636 10.042 14.5237 10.3885 14.5237 10.816C14.5237 11.2435 14.8636 11.5901 15.2829 11.5901Z" fill="black"/>
<path d="M14.6189 12.3276C13.886 11.5997 12.9531 11.5633 12.2844 12.3422C12.2536 12.3731 12.2142 12.3935 12.1715 12.4005C12.1288 12.4075 12.0851 12.4006 12.0464 12.381C12.0024 12.3479 11.961 12.3114 11.9226 12.2718C11.6531 11.9747 11.2833 11.7926 10.8874 11.7622C10.4205 11.7787 9.97854 11.9818 9.6571 12.3276C9.7787 12.1208 9.94631 11.9462 10.1464 11.8177C10.3465 11.6893 10.5734 11.6107 10.8088 11.5882C11.0442 11.5658 11.2815 11.6001 11.5014 11.6885C11.7214 11.7769 11.9179 11.9169 12.075 12.0971L12.1582 12.1747C12.1522 12.1696 12.1447 12.1668 12.1368 12.1668C12.129 12.1668 12.1214 12.1696 12.1154 12.1747C12.8579 11.3449 13.9526 11.3813 14.6189 12.33V12.3276Z" fill="black"/>
<path d="M18.0291 17.1514L16.0824 18.3136C14.884 19.0194 13.5244 19.391 12.1404 19.391C10.7563 19.391 9.39673 19.0194 8.19826 18.3136L6.24685 17.1635C6.20961 17.1529 6.17803 17.1276 6.15907 17.0933C6.1401 17.0589 6.13529 17.0183 6.14571 16.9803C6.15612 16.9424 6.1809 16.9102 6.2146 16.8908C6.24829 16.8715 6.28814 16.8666 6.32538 16.8772H17.9577C17.99 16.8761 18.0216 16.8863 18.0475 16.9059C18.0734 16.9255 18.092 16.9535 18.1003 16.9853C18.1086 17.0172 18.1061 17.0509 18.0931 17.081C18.0802 17.1112 18.0576 17.136 18.0291 17.1514Z" fill="white"/>
<path d="M13.3481 12.9003C13.7332 12.9003 14.0454 12.7515 14.0454 12.5679C14.0454 12.3843 13.7332 12.2355 13.3481 12.2355C12.963 12.2355 12.6508 12.3843 12.6508 12.5679C12.6508 12.7515 12.963 12.9003 13.3481 12.9003Z" fill="black"/>
<path d="M10.9279 12.9003C11.313 12.9003 11.6251 12.7515 11.6251 12.5679C11.6251 12.3843 11.313 12.2355 10.9279 12.2355C10.5428 12.2355 10.2306 12.3843 10.2306 12.5679C10.2306 12.7515 10.5428 12.9003 10.9279 12.9003Z" fill="black"/>
</g>
<defs>
<clipPath id="clip0_482_28079">
<rect width="24" height="22.7939" fill="white" transform="translate(0.138 0.600708)"/>
</clipPath>
</defs>
</svg>
