<svg width="24" height="24" viewBox="0 0 24 24" fill="none" xmlns="http://www.w3.org/2000/svg">
<circle cx="12" cy="12" r="12" transform="matrix(-1 0 0 1 24 0)" fill="#2F2F2F"/>
<path d="M4.65119 7.81118H6.2492L9.02761 14.5953H9.12988L11.9083 7.81118H13.5063V16.5385H12.2535V10.2231H12.1725L9.59863 16.5257H8.55886L5.985 10.2188H5.90403V16.5385H4.65119V7.81118ZM18.1395 16.6706C17.4946 16.6706 16.9392 16.5328 16.4733 16.2572C16.0102 15.9788 15.6523 15.5882 15.3994 15.0853C15.1494 14.5796 15.0244 13.9873 15.0244 13.3083C15.0244 12.6379 15.1494 12.047 15.3994 11.5356C15.6523 11.0242 16.0045 10.6251 16.4562 10.3382C16.9108 10.0512 17.442 9.90777 18.05 9.90777C18.4193 9.90777 18.7773 9.96885 19.1238 10.091C19.4704 10.2132 19.7815 10.4049 20.0571 10.6663C20.3327 10.9277 20.55 11.2671 20.7091 11.6848C20.8682 12.0995 20.9477 12.6038 20.9477 13.1975V13.6492H15.7446V12.6947H19.6991C19.6991 12.3595 19.6309 12.0626 19.4946 11.8041C19.3582 11.5427 19.1665 11.3367 18.9193 11.1862C18.675 11.0356 18.3881 10.9603 18.0585 10.9603C17.7006 10.9603 17.3881 11.0484 17.121 11.2245C16.8568 11.3978 16.6523 11.6251 16.5074 11.9063C16.3653 12.1848 16.2943 12.4873 16.2943 12.814V13.5598C16.2943 13.9973 16.371 14.3694 16.5244 14.6762C16.6807 14.9831 16.898 15.2174 17.1764 15.3794C17.4548 15.5385 17.7801 15.618 18.1523 15.618C18.3937 15.618 18.6139 15.5839 18.8128 15.5157C19.0116 15.4447 19.1835 15.3396 19.3284 15.2004C19.4733 15.0612 19.5841 14.8893 19.6608 14.6848L20.8667 14.9021C20.7702 15.2572 20.5969 15.5683 20.3469 15.8353C20.0997 16.0995 19.7886 16.3055 19.4136 16.4532C19.0415 16.5981 18.6167 16.6706 18.1395 16.6706Z" fill="white"/>
</svg>
