<svg width="25" height="24" viewBox="0 0 25 24" fill="none" xmlns="http://www.w3.org/2000/svg">
<g clip-path="url(#clip0_444_193)">
<path d="M9.32789 0.0149196C9.30723 0.00309198 9.28341 -0.00171593 9.25989 0.00119366C9.23637 0.00410325 9.21437 0.014579 9.19709 0.0311004C9.17981 0.0476218 9.16814 0.0693293 9.16377 0.0930722C9.15941 0.116815 9.16258 0.141358 9.17282 0.163139L10.142 2.26045C10.1483 2.27256 10.1512 2.2863 10.1501 2.30001C10.149 2.31372 10.1441 2.32683 10.136 2.33777C10.1278 2.34872 10.1167 2.35703 10.104 2.36171C10.0913 2.3664 10.0776 2.36726 10.0644 2.3642L8.12616 2.00847C8.10233 2.0037 8.07762 2.007 8.0558 2.01786C8.03397 2.02872 8.01622 2.04655 8.00525 2.06865C7.99428 2.09074 7.99069 2.11588 7.99502 2.14025C7.99935 2.16461 8.01137 2.18687 8.02925 2.20363L9.18252 3.30786C9.19694 3.32148 9.20804 3.33835 9.21493 3.35712C9.22181 3.37589 9.2243 3.39605 9.22218 3.41597C9.22006 3.4359 9.21339 3.45504 9.20272 3.47187C9.19205 3.4887 9.17766 3.50275 9.16071 3.5129L3.26596 6.97136C3.14154 7.04489 3.03823 7.15045 2.96637 7.27747C2.89452 7.40449 2.85663 7.54853 2.85651 7.69516V17.7568C2.85687 17.9034 2.89486 18.0473 2.96669 18.1743C3.03853 18.3013 3.1417 18.4069 3.26596 18.4806L10.5005 22.7271C11.0225 23.0341 11.6145 23.1957 12.2171 23.1957C12.8197 23.1957 13.4117 23.0341 13.9337 22.7271L21.1634 18.4806C21.2862 18.406 21.3877 18.3 21.4578 18.173C21.528 18.046 21.5643 17.9025 21.5632 17.7568V7.70505C21.5635 7.55831 21.5259 7.41408 21.454 7.28697C21.3821 7.15986 21.2785 7.05439 21.1537 6.98124L9.32789 0.0149196Z" fill="black"/>
<path d="M15.7072 11.2473H8.72222C8.44646 11.2459 8.17709 11.3319 7.95138 11.4935C7.72566 11.655 7.55477 11.8841 7.46235 12.149L6.15402 15.9533C6.14581 15.9766 6.14324 16.0015 6.14653 16.026C6.14982 16.0505 6.15888 16.0738 6.17292 16.0939C6.18697 16.1141 6.20559 16.1305 6.22719 16.1417C6.24879 16.1529 6.27273 16.1586 6.29697 16.1583H18.1373C18.1614 16.1581 18.185 16.152 18.2063 16.1406C18.2277 16.1292 18.246 16.1129 18.26 16.0929C18.2739 16.0729 18.283 16.0498 18.2865 16.0256C18.2901 16.0013 18.2879 15.9766 18.2803 15.9533L16.9598 12.149C16.8669 11.8859 16.6969 11.6583 16.4729 11.497C16.2488 11.3357 15.9815 11.2485 15.7072 11.2473Z" fill="white"/>
<path d="M16.2789 8.13H8.15761C6.9279 8.13 5.93103 9.14642 5.93103 10.4002C5.93103 11.654 6.9279 12.6705 8.15761 12.6705H16.2789C17.5086 12.6705 18.5055 11.654 18.5055 10.4002C18.5055 9.14642 17.5086 8.13 16.2789 8.13Z" fill="white"/>
<path d="M9.01538 11.1881C9.44223 11.1881 9.78826 10.8353 9.78826 10.4001C9.78826 9.96488 9.44223 9.61206 9.01538 9.61206C8.58852 9.61206 8.24249 9.96488 8.24249 10.4001C8.24249 10.8353 8.58852 11.1881 9.01538 11.1881Z" fill="black"/>
<path d="M15.4189 11.1881C15.8457 11.1881 16.1918 10.8353 16.1918 10.4001C16.1918 9.96488 15.8457 9.61206 15.4189 9.61206C14.992 9.61206 14.646 9.96488 14.646 10.4001C14.646 10.8353 14.992 11.1881 15.4189 11.1881Z" fill="black"/>
<path d="M14.7429 11.9391C13.9967 11.198 13.047 11.161 12.3662 11.9539C12.3349 11.9855 12.2947 12.0063 12.2512 12.0133C12.2078 12.0204 12.1632 12.0135 12.1239 11.9935C12.0791 11.9598 12.037 11.9226 11.9979 11.8823C11.7235 11.5798 11.3469 11.3945 10.9439 11.3635C10.4685 11.3803 10.0186 11.5871 9.69135 11.9391C9.81514 11.7286 9.98578 11.5508 10.1895 11.42C10.3932 11.2893 10.6242 11.2092 10.8639 11.1864C11.1035 11.1635 11.3451 11.1985 11.5691 11.2885C11.793 11.3785 11.993 11.521 12.1529 11.7044L12.2377 11.7835C12.2316 11.7783 12.2239 11.7754 12.2159 11.7754C12.208 11.7754 12.2002 11.7783 12.1941 11.7835C12.9501 10.9386 14.0646 10.9757 14.7429 11.9416V11.9391Z" fill="black"/>
<path d="M18.2148 16.8503L16.2329 18.0336C15.0128 18.7521 13.6285 19.1304 12.2195 19.1304C10.8104 19.1304 9.42623 18.7521 8.20608 18.0336L6.21936 16.8626C6.18144 16.8518 6.1493 16.8261 6.12999 16.7911C6.11068 16.7562 6.10578 16.7148 6.11639 16.6761C6.12699 16.6375 6.15222 16.6047 6.18652 16.585C6.22083 16.5653 6.2614 16.5603 6.29931 16.5711H18.1421C18.1749 16.5701 18.2072 16.5804 18.2336 16.6004C18.2599 16.6204 18.2789 16.6489 18.2873 16.6813C18.2957 16.7136 18.2931 16.748 18.28 16.7787C18.2668 16.8094 18.2438 16.8346 18.2148 16.8503Z" fill="white"/>
<path d="M13.4491 12.5222C13.8412 12.5222 14.159 12.3707 14.159 12.1838C14.159 11.9969 13.8412 11.8453 13.4491 11.8453C13.0571 11.8453 12.7393 11.9969 12.7393 12.1838C12.7393 12.3707 13.0571 12.5222 13.4491 12.5222Z" fill="black"/>
<path d="M10.9851 12.5222C11.3772 12.5222 11.695 12.3707 11.695 12.1838C11.695 11.9969 11.3772 11.8453 10.9851 11.8453C10.593 11.8453 10.2752 11.9969 10.2752 12.1838C10.2752 12.3707 10.593 12.5222 10.9851 12.5222Z" fill="black"/>
<path d="M2.88075 14.8169C4.47174 14.8169 5.76149 13.5019 5.76149 11.8797C5.76149 10.2575 4.47174 8.9425 2.88075 8.9425C1.28975 8.9425 0 10.2575 0 11.8797C0 13.5019 1.28975 14.8169 2.88075 14.8169Z" fill="black"/>
<path d="M21.5535 14.8169C23.1445 14.8169 24.4343 13.5019 24.4343 11.8797C24.4343 10.2575 23.1445 8.9425 21.5535 8.9425C19.9625 8.9425 18.6728 10.2575 18.6728 11.8797C18.6728 13.5019 19.9625 14.8169 21.5535 14.8169Z" fill="black"/>
<path d="M2.85896 12.9124C2.59861 12.8994 2.35314 12.7848 2.17339 12.5924C1.99363 12.3999 1.89337 12.1443 1.89337 11.8786C1.89337 11.6128 1.99363 11.3572 2.17339 11.1648C2.35314 10.9723 2.59861 10.8577 2.85896 10.8447" fill="white"/>
<path d="M21.5632 10.8447C21.7006 10.8379 21.8378 10.8596 21.9667 10.9084C22.0955 10.9573 22.2133 11.0323 22.3129 11.129C22.4125 11.2257 22.4917 11.342 22.5459 11.4708C22.6 11.5997 22.628 11.7384 22.628 11.8786C22.628 12.0188 22.6 12.1575 22.5459 12.2863C22.4917 12.4152 22.4125 12.5315 22.3129 12.6281C22.2133 12.7248 22.0955 12.7999 21.9667 12.8487C21.8378 12.8976 21.7006 12.9193 21.5632 12.9124" fill="white"/>
</g>
<defs>
<clipPath id="clip0_444_193">
<rect width="24.4342" height="23.2062" fill="white"/>
</clipPath>
</defs>
</svg>
