<svg width="12" height="12" viewBox="0 0 12 12" fill="none" xmlns="http://www.w3.org/2000/svg">
<circle cx="6" cy="6" r="5" stroke="#FF4D4D"/>
<path d="M5.76911 4.45594V7.54417C5.76904 7.60266 5.74412 7.65873 5.69981 7.70008C5.6555 7.74144 5.59543 7.7647 5.53276 7.76476H5.06007C4.99741 7.7647 4.93734 7.74144 4.89303 7.70008C4.84872 7.65873 4.8238 7.60266 4.82373 7.54417V4.45594C4.8238 4.39746 4.84872 4.34139 4.89303 4.30003C4.93734 4.25868 4.99741 4.23542 5.06007 4.23535H5.53276C5.59543 4.23542 5.6555 4.25868 5.69981 4.30003C5.74412 4.34139 5.76904 4.39746 5.76911 4.45594ZM7.23444 4.23535H6.76176C6.6991 4.23542 6.63902 4.25868 6.59471 4.30003C6.5504 4.34139 6.52548 4.39746 6.52541 4.45594V7.54417C6.52548 7.60266 6.5504 7.65873 6.59471 7.70008C6.63902 7.74144 6.6991 7.7647 6.76176 7.76476H7.23444C7.29711 7.7647 7.35718 7.74144 7.40149 7.70008C7.4458 7.65873 7.47072 7.60266 7.47079 7.54417V4.45594C7.47072 4.39746 7.4458 4.34139 7.40149 4.30003C7.35718 4.25868 7.29711 4.23542 7.23444 4.23535Z" fill="#FF4D4D"/>
</svg>
